<svg id="Layer_1" data-name="Layer 1" xmlns="http://www.w3.org/2000/svg" viewBox="0 0 1080 1080"><defs><style>.cls-1{fill:#00f4f4;}.cls-2{fill:none;stroke:#000;stroke-miterlimit:10;stroke-width:5px;}</style></defs><title>favicon</title><rect class="cls-1" x="220.29" y="153.25" width="640" height="640" rx="71.27"/><path d="M704,414.51a93,93,0,0,1-93,93H587.69V484.29H611a69.78,69.78,0,1,0,0-139.56v-.44h-1.23a69.79,69.79,0,0,0-139.57,0h-.52v.44a69.78,69.78,0,1,0,0,139.56h23.26v23.26H469.63a93,93,0,0,1-20.45-183.81,93.06,93.06,0,0,1,181.47-.16A93,93,0,0,1,704,414.51Z"/><polyline class="cls-2" points="516.95 543.79 516.95 451.79 484.71 406.61"/><polyline class="cls-2" points="561.82 543.79 561.82 467.54 592.59 436.77"/><line class="cls-2" x1="540.29" y1="559.53" x2="540.29" y2="362.8"/><rect x="478.14" y="589.04" width="123.27" height="14.58"/><path d="M478.14,619.23H601.42a0,0,0,0,1,0,0v40.6a35.4,35.4,0,0,1-35.4,35.4H513.54a35.4,35.4,0,0,1-35.4-35.4v-40.6A0,0,0,0,1,478.14,619.23Z"/><circle cx="540.29" cy="346.28" r="7.75"/><circle cx="475.59" cy="394.9" r="7.75"/><circle cx="603.21" cy="424.62" r="7.75"/></svg>